<?xml version="1.0" encoding="UTF-8"?>
<svg version="1.1" xmlns="http://www.w3.org/2000/svg" width="512" height="512">
<path d="M0 0 C1.02779068 -0.00607773 2.05558136 -0.01215546 3.11451721 -0.01841736 C4.76314003 0.01088112 4.76314003 0.01088112 6.44506836 0.04077148 C7.58270126 0.04310287 8.72033417 0.04543427 9.8924408 0.0478363 C12.29393019 0.05756752 14.69539683 0.07933991 17.09667969 0.11230469 C20.77500335 0.16173209 24.45198938 0.17378734 28.13061523 0.17944336 C30.46461386 0.19352886 32.79860086 0.20973308 35.13256836 0.22827148 C36.78422752 0.23631554 36.78422752 0.23631554 38.46925354 0.24452209 C39.49389206 0.26050949 40.51853058 0.27649689 41.57421875 0.29296875 C42.92393517 0.30892845 42.92393517 0.30892845 44.30091858 0.32521057 C46.89497694 0.61890254 48.52615608 1.20413497 50.72241211 2.59936523 C51.94878781 5.05211664 51.83656525 6.64994334 51.82006836 9.38842773 C51.8168457 10.32944336 51.81362305 11.27045898 51.81030273 12.23999023 C51.80192383 13.22483398 51.79354492 14.20967773 51.78491211 15.22436523 C51.78040039 16.21694336 51.77588867 17.20952148 51.77124023 18.23217773 C51.75943356 20.68796683 51.74296611 23.14363627 51.72241211 25.59936523 C52.41024686 25.59567806 53.09808161 25.59199089 53.80675983 25.58819199 C70.53156059 25.49991304 87.25628771 25.43369089 103.98126698 25.39211655 C112.06930207 25.37147789 120.1571818 25.3433326 128.24511719 25.29760742 C135.2933227 25.2577793 142.34141572 25.2319419 149.38973063 25.22301126 C153.12295148 25.2177896 156.85585044 25.20549037 160.58896828 25.17644501 C164.75314327 25.14430765 168.91675617 25.14340321 173.08105469 25.14526367 C174.32326782 25.13088257 175.56548096 25.11650146 176.84533691 25.10168457 C177.97695755 25.10718323 179.10857819 25.11268188 180.27449036 25.11834717 C181.75258541 25.11281641 181.75258541 25.11281641 183.26054096 25.10717392 C185.72241211 25.59936523 185.72241211 25.59936523 187.54162121 27.42319107 C189.25797933 30.58640497 189.05938541 33.19220339 189.01538086 36.77124023 C189.01113602 37.45365784 189.00689117 38.13607544 189.0025177 38.83917236 C188.98578183 41.00964528 188.9481417 43.17917502 188.90991211 45.34936523 C188.89485857 46.8246122 188.88117133 48.29987378 188.86889648 49.77514648 C188.83589588 53.38352368 188.78414978 56.99135234 188.72241211 60.59936523 C190.13728912 60.58937248 190.13728912 60.58937248 191.58074951 60.57917786 C200.46801747 60.51837484 209.35524324 60.47339652 218.24267197 60.44392872 C222.81185319 60.42826973 227.38086656 60.40702725 231.94995117 60.37304688 C236.35900778 60.34046167 240.76790289 60.32251397 245.17707062 60.31473351 C246.85960686 60.30918848 248.54213422 60.29836043 250.22460175 60.28217506 C252.58051181 60.26041161 254.93575371 60.2573978 257.29174805 60.25878906 C257.98802307 60.24800323 258.6842981 60.23721741 259.40167236 60.22610474 C262.38341502 60.24517012 264.45270896 60.45298867 267.09378052 61.88638306 C268.84332114 63.72653643 269.50192981 64.92799272 270.21118164 67.34765625 C270.4395018 68.09987961 270.66782196 68.85210297 270.90306091 69.62712097 C271.25063194 70.85281548 271.25063194 70.85281548 271.60522461 72.10327148 C271.85873184 72.96112747 272.11223907 73.81898346 272.37342834 74.70283508 C272.91915543 76.55324561 273.45939032 78.40528291 273.99472046 80.25872803 C274.85799443 83.1978946 275.76922136 86.11844325 276.69238281 89.03930664 C279.4914413 98.02589617 281.96774556 106.59438343 282.75756836 115.99389648 C283.743091 125.15520311 284.98525913 133.79110005 291.72241211 140.59936523 C302.87021443 148.95481458 316.0296188 154.65243649 328.72314453 160.22973633 C329.37152188 160.51511292 330.01989923 160.80048952 330.68792439 161.09451389 C333.77846425 162.44699675 336.87469642 163.76012294 340.00239563 165.02592468 C350.84979495 169.55986196 359.00834816 175.50733573 363.88256836 186.43530273 C365.53452598 190.69197493 365.85392181 193.94815405 365.86767578 198.51757812 C365.8727137 199.56680199 365.8727137 199.56680199 365.87785339 200.63722229 C365.88735111 202.94884008 365.88930565 205.2603854 365.89038086 207.57202148 C365.89359332 209.17720062 365.89695738 210.78237947 365.90046692 212.38755798 C365.90645456 215.75089192 365.9083071 219.11420017 365.90771484 222.47753906 C365.90761303 226.79430564 365.921287 231.11090845 365.93848705 235.42763615 C365.94958388 238.74153913 365.9516348 242.05540216 365.95110512 245.36932182 C365.9522879 246.96138513 365.9567263 248.55344939 365.96443748 250.14549446 C365.97419454 252.36729695 365.971377 254.58873904 365.96533203 256.81054688 C365.96675705 258.0761293 365.96818207 259.34171173 365.96965027 260.64564514 C365.72241211 263.59936523 365.72241211 263.59936523 363.72241211 265.59936523 C361.50778198 265.83987427 361.50778198 265.83987427 358.72192383 265.82641602 C357.68099579 265.82626495 356.64006775 265.82611389 355.56759644 265.82595825 C353.87692551 265.8104744 353.87692551 265.8104744 352.15209961 265.79467773 C351.00073517 265.79184784 349.84937073 265.78901794 348.66311646 265.78610229 C344.97444399 265.77487931 341.28601158 265.74977079 337.59741211 265.72436523 C335.10132186 265.71433818 332.60522781 265.70521185 330.10913086 265.69702148 C323.98014227 265.67493307 317.85129434 265.6414347 311.72241211 265.59936523 C311.73401367 266.68475586 311.74561523 267.77014648 311.75756836 268.88842773 C311.76695349 270.3337385 311.77605292 271.77905115 311.78491211 273.22436523 C311.79329102 273.9372168 311.80166992 274.65006836 311.81030273 275.38452148 C311.88125911 290.85301206 304.86746529 306.46674247 294.06616211 317.48999023 C281.51052228 328.79006608 266.14193682 335.03805573 249.19116211 334.74780273 C234.47159605 333.86276553 222.03636068 329.05130032 210.72241211 319.59936523 C210.00311523 319.00510742 209.28381836 318.41084961 208.54272461 317.79858398 C199.06363383 309.18625832 193.43179675 296.90448715 190.72241211 284.59936523 C190.72241211 278.32936523 190.72241211 272.05936523 190.72241211 265.59936523 C141.22241211 265.59936523 91.72241211 265.59936523 40.72241211 265.59936523 C41.05241211 266.25936523 41.38241211 266.91936523 41.72241211 267.59936523 C43.17704723 284.27172158 37.92872103 299.57583529 28.03491211 312.91186523 C16.20303197 326.79947745 0.82677315 332.99672228 -16.96508789 334.88452148 C-33.11955838 335.4956281 -48.45695321 329.26475464 -60.27758789 318.59936523 C-60.9027832 318.06698242 -61.52797852 317.53459961 -62.17211914 316.98608398 C-74.33130632 305.92479181 -79.24950361 290.90239339 -80.21484375 274.97900391 C-80.35614679 271.6367887 -80.17418694 268.80877731 -79.27758789 265.59936523 C-80.08747162 265.60380646 -80.89735535 265.60824768 -81.73178101 265.61282349 C-89.35411386 265.65285275 -96.97639595 265.68332539 -104.59880638 265.70298958 C-108.51782073 265.71343889 -112.43674842 265.72761885 -116.35571289 265.75024414 C-120.13581828 265.77193185 -123.91584017 265.78392521 -127.69600296 265.78911972 C-129.14014628 265.79282283 -130.58428489 265.80005384 -132.02839279 265.81082535 C-134.04679683 265.8252854 -136.06528441 265.82618168 -138.08374023 265.82641602 C-139.80915543 265.83307785 -139.80915543 265.83307785 -141.56942749 265.83987427 C-144.27758789 265.59936523 -144.27758789 265.59936523 -146.27758789 263.59936523 C-146.47795912 260.50791263 -146.55111412 257.50569932 -146.5382843 254.4128418 C-146.54210985 253.44882572 -146.5459354 252.48480965 -146.54987687 251.49158096 C-146.56024754 248.24099625 -146.55620704 244.99058684 -146.55224609 241.73999023 C-146.55659029 239.417845 -146.56177245 237.09570121 -146.56773376 234.77355957 C-146.58116569 228.45141523 -146.58169784 222.12933052 -146.57917047 215.80717468 C-146.57796896 209.87282837 -146.58417059 203.93849223 -146.58960392 198.00414896 C-146.60048863 185.53427276 -146.59831246 173.06442357 -146.59221908 160.59454584 C-146.587048 149.17610436 -146.5983087 137.75774814 -146.6173173 126.33932352 C-146.63666871 114.62553391 -146.64495652 102.91178469 -146.64119405 91.19797897 C-146.63937583 84.6172666 -146.64207082 78.03663234 -146.65590858 71.45593262 C-146.66842773 65.27047516 -146.66659918 59.08518914 -146.6534977 52.8997345 C-146.6511195 50.6236414 -146.65391063 48.34753645 -146.66212082 46.07145691 C-146.67248523 42.97606472 -146.66457116 39.88125888 -146.65180969 36.78588867 C-146.65918398 35.8748148 -146.66655826 34.96374092 -146.67415601 34.02505875 C-146.652318 31.52557373 -146.652318 31.52557373 -146.27758789 27.59936523 C-142.90672962 25.35212639 -141.80896948 25.35142672 -137.86763 25.3588562 C-136.18282028 25.35473221 -136.18282028 25.35473221 -134.463974 25.3505249 C-132.6146804 25.36131073 -132.6146804 25.36131073 -130.72802734 25.37231445 C-128.7815329 25.37187637 -128.7815329 25.37187637 -126.79571533 25.37142944 C-123.23603392 25.37085495 -119.67648693 25.38262478 -116.11683679 25.39657736 C-112.39724929 25.4090687 -108.67765882 25.41025395 -104.95805359 25.41262817 C-97.91388784 25.41884765 -90.86978407 25.43526476 -83.82564563 25.45532715 C-75.80639031 25.47767164 -67.78713206 25.48867593 -59.76785338 25.49871802 C-43.27106192 25.5196306 -26.77433281 25.55481563 -10.27758789 25.59936523 C-10.30377197 25.01968994 -10.32995605 24.44001465 -10.35693359 23.84277344 C-10.46129401 21.19941649 -10.52603116 18.55649324 -10.59008789 15.91186523 C-10.65292969 14.54384766 -10.65292969 14.54384766 -10.71704102 13.14819336 C-10.80004531 8.58295726 -10.78019168 6.31253985 -8.08790588 2.49229431 C-5.03277424 0.43446757 -3.63486898 -0.02046525 0 0 Z " fill="#F0F0F0" transform="translate(146.277587890625,88.400634765625)"/>
<path d="M0 0 C1.02779068 -0.00607773 2.05558136 -0.01215546 3.11451721 -0.01841736 C4.76314003 0.01088112 4.76314003 0.01088112 6.44506836 0.04077148 C7.58270126 0.04310287 8.72033417 0.04543427 9.8924408 0.0478363 C12.29393019 0.05756752 14.69539683 0.07933991 17.09667969 0.11230469 C20.77500335 0.16173209 24.45198938 0.17378734 28.13061523 0.17944336 C30.46461386 0.19352886 32.79860086 0.20973308 35.13256836 0.22827148 C36.78422752 0.23631554 36.78422752 0.23631554 38.46925354 0.24452209 C39.49389206 0.26050949 40.51853058 0.27649689 41.57421875 0.29296875 C42.92393517 0.30892845 42.92393517 0.30892845 44.30091858 0.32521057 C46.89497694 0.61890254 48.52615608 1.20413497 50.72241211 2.59936523 C51.94878781 5.05211664 51.83656525 6.64994334 51.82006836 9.38842773 C51.8168457 10.32944336 51.81362305 11.27045898 51.81030273 12.23999023 C51.80192383 13.22483398 51.79354492 14.20967773 51.78491211 15.22436523 C51.78040039 16.21694336 51.77588867 17.20952148 51.77124023 18.23217773 C51.75943356 20.68796683 51.74296611 23.14363627 51.72241211 25.59936523 C52.41024686 25.59567806 53.09808161 25.59199089 53.80675983 25.58819199 C70.53156059 25.49991304 87.25628771 25.43369089 103.98126698 25.39211655 C112.06930207 25.37147789 120.1571818 25.3433326 128.24511719 25.29760742 C135.2933227 25.2577793 142.34141572 25.2319419 149.38973063 25.22301126 C153.12295148 25.2177896 156.85585044 25.20549037 160.58896828 25.17644501 C164.75314327 25.14430765 168.91675617 25.14340321 173.08105469 25.14526367 C174.32326782 25.13088257 175.56548096 25.11650146 176.84533691 25.10168457 C177.97695755 25.10718323 179.10857819 25.11268188 180.27449036 25.11834717 C181.75258541 25.11281641 181.75258541 25.11281641 183.26054096 25.10717392 C185.72241211 25.59936523 185.72241211 25.59936523 187.54162121 27.42319107 C189.25797933 30.58640497 189.05938541 33.19220339 189.01538086 36.77124023 C189.01113602 37.45365784 189.00689117 38.13607544 189.0025177 38.83917236 C188.98578183 41.00964528 188.9481417 43.17917502 188.90991211 45.34936523 C188.89485857 46.8246122 188.88117133 48.29987378 188.86889648 49.77514648 C188.83589588 53.38352368 188.78414978 56.99135234 188.72241211 60.59936523 C190.13728912 60.58937248 190.13728912 60.58937248 191.58074951 60.57917786 C200.46801747 60.51837484 209.35524324 60.47339652 218.24267197 60.44392872 C222.81185319 60.42826973 227.38086656 60.40702725 231.94995117 60.37304688 C236.35900778 60.34046167 240.76790289 60.32251397 245.17707062 60.31473351 C246.85960686 60.30918848 248.54213422 60.29836043 250.22460175 60.28217506 C252.58051181 60.26041161 254.93575371 60.2573978 257.29174805 60.25878906 C257.98802307 60.24800323 258.6842981 60.23721741 259.40167236 60.22610474 C262.38401383 60.24517395 264.45259779 60.45281548 267.09378052 61.88737488 C268.83936414 63.72230325 269.50080792 64.91946158 270.21118164 67.33178711 C270.43920975 68.08071228 270.66723785 68.82963745 270.9021759 69.60125732 C271.13418198 70.41532043 271.36618805 71.22938354 271.60522461 72.06811523 C271.98942818 73.3522934 271.98942818 73.3522934 272.38139343 74.66241455 C273.2175606 77.47076038 274.0329367 80.28465893 274.84741211 83.09936523 C275.41894131 85.04008396 275.99145962 86.98051166 276.56494141 88.9206543 C277.73142064 92.8780422 278.88831537 96.83805078 280.03735352 100.80053711 C281.36313695 105.37207313 282.70683518 109.93798581 284.06005859 114.50146484 C285.00626644 117.6982486 285.94323794 120.89767404 286.87689209 124.09814453 C287.31236578 125.58798886 287.75035817 127.0770995 288.190979 128.56542969 C288.80071893 130.63143541 289.39800787 132.70064415 289.99194336 134.77124023 C290.32814697 135.92720703 290.66435059 137.08317383 291.01074219 138.27416992 C291.78153368 141.87560395 292.05521272 144.92893997 291.72241211 148.59936523 C290.19721519 150.63664489 289.31278469 151.4864985 286.79153156 151.96850872 C285.68952805 151.96436065 285.68952805 151.96436065 284.56526184 151.96012878 C283.29695274 151.96631477 283.29695274 151.96631477 282.00302124 151.97262573 C281.07873322 151.9618399 280.15444519 151.95105408 279.20214844 151.93994141 C277.73845573 151.94059853 277.73845573 151.94059853 276.24519348 151.94126892 C273.01474102 151.93917625 269.78480534 151.9158223 266.55444336 151.89233398 C264.31670922 151.88673974 262.07897142 151.88246883 259.8412323 151.87947083 C253.94745769 151.86800858 248.05390437 151.83852937 242.16021729 151.80535889 C236.14777622 151.77468782 230.13529945 151.76097182 224.12280273 151.74584961 C212.32257522 151.71366113 200.52251206 151.66244799 188.72241211 151.59936523 C188.72241211 155.55936523 188.72241211 159.51936523 188.72241211 163.59936523 C188.39241211 163.59936523 188.06241211 163.59936523 187.72241211 163.59936523 C187.72241211 152.04936523 187.72241211 140.49936523 187.72241211 128.59936523 C152.41241211 128.59936523 117.10241211 128.59936523 80.72241211 128.59936523 C79.73241211 125.13436523 79.73241211 125.13436523 78.72241211 121.59936523 C76.81021626 119.68716939 73.38595707 120.35501226 70.84350586 120.28295898 C69.81351219 120.25178734 69.81351219 120.25178734 68.76271057 120.21998596 C66.56188276 120.1544238 64.36093236 120.09557508 62.15991211 120.03686523 C60.67096697 119.99368631 59.18203438 119.95007223 57.69311523 119.90600586 C54.03634658 119.79873593 50.37943893 119.69748751 46.72241211 119.59936523 C46.70259277 118.67075684 46.68277344 117.74214844 46.66235352 116.78540039 C46.58432597 113.34486003 46.49763749 109.90476632 46.4050293 106.46459961 C46.36671213 104.97477634 46.33186403 103.48485969 46.30053711 101.99487305 C46.25494482 99.85488476 46.19694337 97.71554087 46.13647461 95.57592773 C46.10505371 94.2876709 46.07363281 92.99941406 46.04125977 91.67211914 C46.03782943 88.49455019 46.03782943 88.49455019 43.72241211 86.59936523 C41.67653536 86.29404621 41.67653536 86.29404621 39.30444336 86.34057617 C38.39009521 86.33427185 37.47574707 86.32796753 36.53369141 86.32147217 C35.54409424 86.32552063 34.55449707 86.32956909 33.53491211 86.33374023 C32.52146729 86.33182678 31.50802246 86.32991333 30.46386719 86.32794189 C28.31860099 86.32657932 26.17332658 86.33028076 24.02807617 86.33862305 C20.73589639 86.34932142 17.44426233 86.33873004 14.15209961 86.32592773 C12.07136923 86.32724932 9.9906392 86.32981168 7.90991211 86.33374023 C6.92031494 86.32969177 5.93071777 86.32564331 4.91113281 86.32147217 C3.5396106 86.33092865 3.5396106 86.33092865 2.14038086 86.34057617 C0.93031372 86.34296295 0.93031372 86.34296295 -0.30419922 86.34539795 C-2.51065225 86.42505274 -2.51065225 86.42505274 -4.27758789 88.59936523 C-4.65105458 91.80474926 -4.65105458 91.80474926 -4.69165039 95.57592773 C-4.71101654 96.26117523 -4.73038269 96.94642273 -4.75033569 97.6524353 C-4.8101562 99.84295167 -4.85652545 102.03352053 -4.90258789 104.22436523 C-4.94076552 105.70876326 -4.97981713 107.19313908 -5.01977539 108.67749023 C-5.11585873 112.31791209 -5.19988071 115.95849959 -5.27758789 119.59936523 C-6.20619629 119.61918457 -7.13480469 119.63900391 -8.09155273 119.65942383 C-11.53209309 119.73745137 -14.9721868 119.82413985 -18.41235352 119.91674805 C-19.90217678 119.95506521 -21.39209343 119.98991331 -22.88208008 120.02124023 C-25.02206837 120.06683253 -27.16141225 120.12483397 -29.30102539 120.18530273 C-30.58928223 120.21672363 -31.87753906 120.24814453 -33.20483398 120.28051758 C-36.38240294 120.28394791 -36.38240294 120.28394791 -38.27758789 122.59936523 C-38.60758789 124.57936523 -38.93758789 126.55936523 -39.27758789 128.59936523 C-74.58758789 128.59936523 -109.89758789 128.59936523 -146.27758789 128.59936523 C-146.33946289 111.97561523 -146.40133789 95.35186523 -146.46508789 78.22436523 C-146.4923999 72.96966309 -146.51971191 67.71496094 -146.54785156 62.30102539 C-146.56140137 55.89892578 -146.56140137 55.89892578 -146.56391907 52.90463257 C-146.56853475 50.80720107 -146.57910427 48.70977767 -146.59431458 46.61239624 C-146.61617148 43.44075629 -146.61930939 40.269604 -146.61816406 37.09790039 C-146.62895839 36.158892 -146.63975271 35.21988361 -146.65087414 34.25242043 C-146.64674165 33.40161589 -146.64260916 32.55081135 -146.63835144 31.67422485 C-146.64111682 30.93125971 -146.6438822 30.18829456 -146.64673138 29.42281532 C-146.27758789 27.59936523 -146.27758789 27.59936523 -143.27758789 25.59936523 C-140.83133411 25.35326958 -140.83133411 25.35326958 -137.86763 25.3588562 C-136.18282028 25.35473221 -136.18282028 25.35473221 -134.463974 25.3505249 C-132.6146804 25.36131073 -132.6146804 25.36131073 -130.72802734 25.37231445 C-128.7815329 25.37187637 -128.7815329 25.37187637 -126.79571533 25.37142944 C-123.23603392 25.37085495 -119.67648693 25.38262478 -116.11683679 25.39657736 C-112.39724929 25.4090687 -108.67765882 25.41025395 -104.95805359 25.41262817 C-97.91388784 25.41884765 -90.86978407 25.43526476 -83.82564563 25.45532715 C-75.80639031 25.47767164 -67.78713206 25.48867593 -59.76785338 25.49871802 C-43.27106192 25.5196306 -26.77433281 25.55481563 -10.27758789 25.59936523 C-10.30377197 25.01968994 -10.32995605 24.44001465 -10.35693359 23.84277344 C-10.46129401 21.19941649 -10.52603116 18.55649324 -10.59008789 15.91186523 C-10.65292969 14.54384766 -10.65292969 14.54384766 -10.71704102 13.14819336 C-10.80004531 8.58295726 -10.78019168 6.31253985 -8.08790588 2.49229431 C-5.03277424 0.43446757 -3.63486898 -0.02046525 0 0 Z " fill="#EFEFEF" transform="translate(146.277587890625,88.400634765625)"/>
<path d="M0 0 C0.91104492 -0.00945648 1.82208984 -0.01891296 2.76074219 -0.02865601 C3.74204102 -0.02258331 4.72333984 -0.01651062 5.734375 -0.01025391 C6.7440332 -0.01312408 7.75369141 -0.01599426 8.79394531 -0.01895142 C10.92904216 -0.02099329 13.06415766 -0.01545487 15.19921875 -0.00292969 C18.47177871 0.01312181 21.74310356 -0.00277465 25.015625 -0.02197266 C27.0885444 -0.01999025 29.16146303 -0.01614662 31.234375 -0.01025391 C32.21567383 -0.0163266 33.19697266 -0.02239929 34.20800781 -0.02865601 C35.5745752 -0.01447128 35.5745752 -0.01447128 36.96875 0 C37.77022461 0.00238678 38.57169922 0.00477356 39.39746094 0.00723267 C42.02226694 0.48637184 42.91009368 1.26017121 44.484375 3.38818359 C44.82495117 6.57446289 44.82495117 6.57446289 44.77734375 10.46240234 C44.77309891 11.14623489 44.76885406 11.83006744 44.76448059 12.53462219 C44.74770853 14.71537921 44.71006157 16.89520668 44.671875 19.07568359 C44.65682614 20.55548794 44.64313808 22.03530679 44.63085938 23.51513672 C44.59781069 27.13978696 44.54603946 30.76389453 44.484375 34.38818359 C45.40774658 34.37247314 46.33111816 34.3567627 47.2824707 34.34057617 C50.70977389 34.28943528 54.13667142 34.25182825 57.56420898 34.22338867 C59.04734699 34.20830591 60.53044044 34.1878367 62.01342773 34.16186523 C64.14578245 34.12545744 66.27754735 34.10845286 68.41015625 34.09521484 C70.33468628 34.07164917 70.33468628 34.07164917 72.2980957 34.04760742 C75.484375 34.38818359 75.484375 34.38818359 77.42651367 35.53149414 C78.484375 37.38818359 78.484375 37.38818359 78.484375 43.38818359 C113.794375 43.38818359 149.104375 43.38818359 185.484375 43.38818359 C185.484375 54.93818359 185.484375 66.48818359 185.484375 78.38818359 C150.174375 78.38818359 114.864375 78.38818359 78.484375 78.38818359 C78.154375 80.69818359 77.824375 83.00818359 77.484375 85.38818359 C74.51078051 86.87498084 71.82138321 86.49930964 68.5078125 86.48583984 C67.47994125 86.48371742 67.47994125 86.48371742 66.43130493 86.48155212 C64.24061739 86.47595034 62.0500317 86.46339765 59.859375 86.45068359 C58.37500148 86.44566882 56.89062635 86.44110587 55.40625 86.43701172 C51.76559185 86.42598037 48.12499336 86.40871458 44.484375 86.38818359 C44.50794067 87.77324097 44.50794067 87.77324097 44.53198242 89.1862793 C44.58312332 92.61358248 44.62073035 96.04048001 44.64916992 99.46801758 C44.66425268 100.95115559 44.68472189 102.43424903 44.71069336 103.91723633 C44.74710116 106.04959104 44.76410573 108.18135594 44.77734375 110.31396484 C44.80090942 112.23849487 44.80090942 112.23849487 44.82495117 114.2019043 C44.484375 117.38818359 44.484375 117.38818359 43.24531555 119.06306458 C41.00684588 120.74752731 39.7533079 120.76807481 36.96875 120.77636719 C35.60218262 120.79055191 35.60218262 120.79055191 34.20800781 120.80502319 C32.73605957 120.79591415 32.73605957 120.79591415 31.234375 120.78662109 C29.7198877 120.79092636 29.7198877 120.79092636 28.17480469 120.7953186 C26.03970784 120.79736048 23.90459234 120.79182205 21.76953125 120.77929688 C18.49697129 120.76324538 15.22564644 120.77914184 11.953125 120.79833984 C9.8802056 120.79635743 7.80728697 120.79251381 5.734375 120.78662109 C4.75307617 120.79269379 3.77177734 120.79876648 2.76074219 120.80502319 C1.84969727 120.79556671 0.93865234 120.78611023 0 120.77636719 C-0.80147461 120.77398041 -1.60294922 120.77159363 -2.42871094 120.76913452 C-5.05351694 120.28999535 -5.94134368 119.51619597 -7.515625 117.38818359 C-7.85620117 114.2019043 -7.85620117 114.2019043 -7.80859375 110.31396484 C-7.80434891 109.63013229 -7.80010406 108.94629974 -7.79573059 108.241745 C-7.77895853 106.06098798 -7.74131157 103.88116051 -7.703125 101.70068359 C-7.68807614 100.22087925 -7.67438808 98.74106039 -7.66210938 97.26123047 C-7.62906069 93.63658023 -7.57728946 90.01247265 -7.515625 86.38818359 C-8.43899658 86.40389404 -9.36236816 86.41960449 -10.3137207 86.43579102 C-13.74102389 86.48693191 -17.16792142 86.52453894 -20.59545898 86.55297852 C-22.07859699 86.56806128 -23.56169044 86.58853048 -25.04467773 86.61450195 C-27.17703245 86.65090975 -29.30879735 86.66791432 -31.44140625 86.68115234 C-32.72442627 86.69686279 -34.00744629 86.71257324 -35.3293457 86.72875977 C-38.515625 86.38818359 -38.515625 86.38818359 -40.45776367 85.18237305 C-41.515625 83.38818359 -41.515625 83.38818359 -41.515625 78.38818359 C-76.825625 78.38818359 -112.135625 78.38818359 -148.515625 78.38818359 C-148.515625 66.83818359 -148.515625 55.28818359 -148.515625 43.38818359 C-113.205625 43.38818359 -77.895625 43.38818359 -41.515625 43.38818359 C-41.515625 41.40818359 -41.515625 39.42818359 -41.515625 37.38818359 C-40.45776367 35.53149414 -40.45776367 35.53149414 -38.515625 34.38818359 C-35.3293457 34.04760742 -35.3293457 34.04760742 -31.44140625 34.09521484 C-30.7575737 34.09945969 -30.07374115 34.10370453 -29.3691864 34.108078 C-27.18842939 34.12485006 -25.00860191 34.16249703 -22.828125 34.20068359 C-21.34832065 34.21573245 -19.8685018 34.22942051 -18.38867188 34.24169922 C-14.76402164 34.2747479 -11.13991406 34.32651913 -7.515625 34.38818359 C-7.53919067 33.00312622 -7.53919067 33.00312622 -7.56323242 31.59008789 C-7.61437332 28.16278471 -7.65198035 24.73588718 -7.68041992 21.30834961 C-7.69550268 19.8252116 -7.71597189 18.34211816 -7.74194336 16.85913086 C-7.77835116 14.72677615 -7.79535573 12.59501124 -7.80859375 10.46240234 C-7.83215942 8.53787231 -7.83215942 8.53787231 -7.85620117 6.57446289 C-7.515625 3.38818359 -7.515625 3.38818359 -6.27656555 1.71330261 C-4.03809588 0.02883988 -2.7845579 0.00829237 0 0 Z " fill="#F9B400" transform="translate(148.515625,173.61181640625)"/>
<path d="M0 0 C0.88171875 0.00563965 1.7634375 0.0112793 2.671875 0.01708984 C8.92196027 0.13398959 14.31722094 0.70548125 20.0625 3.3125 C21.50109375 3.93318359 21.50109375 3.93318359 22.96875 4.56640625 C41.17109861 13.00108042 50.95645314 26.10844331 58.234375 44.23046875 C63.29305645 60.00305573 59.67171154 76.16127677 52.38427734 90.51147461 C44.33637736 105.48880801 31.2018939 114.19745122 15.375 119.5625 C-1.06190399 123.28406317 -18.37297241 121.38139317 -32.921875 112.48828125 C-35.70107011 110.5343996 -38.33073822 108.49024926 -40.9375 106.3125 C-41.65679687 105.71824219 -42.37609375 105.12398438 -43.1171875 104.51171875 C-53.39851877 95.17050921 -60.38944385 80.59181703 -61.3125 66.80078125 C-61.99739026 49.12093088 -57.68621642 33.42994658 -45.6875 20.0625 C-33.26401433 6.80684936 -18.11396673 -0.12173365 0 0 Z " fill="#505050" transform="translate(397.9375,301.6875)"/>
<path d="M0 0 C0.59167969 0.41507812 1.18335938 0.83015625 1.79296875 1.2578125 C13.19085661 9.96924167 20.1126172 24.92850442 22.71875 38.7109375 C24.86189295 56.15373983 19.718349 72.2862827 9.3125 86.3125 C-2.51938014 100.20011221 -17.89563896 106.39735704 -35.6875 108.28515625 C-51.84197049 108.89626286 -67.17936532 102.6653894 -79 92 C-79.93779297 91.20142578 -79.93779297 91.20142578 -80.89453125 90.38671875 C-92.53754888 79.79498939 -98.24848699 64.67984596 -99.11303711 49.22998047 C-99.44027763 33.73320045 -93.6494002 19.18157485 -83.5 7.5625 C-82.01702618 6.0250597 -80.51866883 4.50219141 -79 3 C-78.22462891 2.17435547 -78.22462891 2.17435547 -77.43359375 1.33203125 C-56.30649611 -19.24344504 -22.3037758 -16.71700477 0 0 Z " fill="#505050" transform="translate(165,315)"/>
<path d="M0 0 C1.10248833 -0.00744736 1.10248833 -0.00744736 2.22724915 -0.01504517 C4.66998211 -0.02970487 7.11265011 -0.03647573 9.55541992 -0.04199219 C11.24834699 -0.04774134 12.94127404 -0.0534991 14.63420105 -0.05926514 C18.18940536 -0.06978653 21.74458699 -0.07562146 25.29980469 -0.07910156 C29.85638977 -0.08458299 34.41267551 -0.10859854 38.96916676 -0.13707352 C42.46844864 -0.15569606 45.96765845 -0.16090533 49.4669857 -0.16243744 C51.14672161 -0.16546633 52.82645617 -0.17350282 54.50614357 -0.18662262 C56.85719159 -0.20367241 59.20750903 -0.20180557 61.55859375 -0.1953125 C62.25329773 -0.20452728 62.94800171 -0.21374207 63.66375732 -0.22323608 C66.64106395 -0.19747024 68.70796984 0.01679909 71.34376526 1.45013428 C73.09092763 3.28454106 73.751601 4.48060608 74.4621582 6.89355469 C74.80420036 8.01694244 74.80420036 8.01694244 75.15315247 9.1630249 C75.38515854 9.97708801 75.61716461 10.79115112 75.85620117 11.62988281 C76.11233688 12.48600159 76.3684726 13.34212036 76.63237 14.22418213 C77.46853716 17.03252795 78.28391326 19.8464265 79.09838867 22.66113281 C79.66991787 24.60185154 80.24243618 26.54227924 80.81591797 28.48242188 C81.9823972 32.43980978 83.13929193 36.39981836 84.28833008 40.36230469 C85.61411351 44.9338407 86.95781174 49.49975339 88.31103516 54.06323242 C89.25724301 57.26001618 90.19421451 60.45944162 91.12786865 63.65991211 C91.56334235 65.14975644 92.00133473 66.63886708 92.44195557 68.12719727 C93.05169549 70.19320299 93.64898443 72.26241173 94.24291992 74.33300781 C94.57912354 75.48897461 94.91532715 76.64494141 95.26171875 77.8359375 C96.03251025 81.43737153 96.30618929 84.49070755 95.97338867 88.16113281 C94.44819175 90.19841247 93.56376125 91.04826607 91.04250813 91.5302763 C90.30783912 91.52751092 89.57317011 91.52474554 88.8162384 91.52189636 C87.97069901 91.52602036 87.12515961 91.53014435 86.2539978 91.53439331 C85.32970978 91.52360748 84.40542175 91.51282166 83.453125 91.50170898 C81.9894323 91.5023661 81.9894323 91.5023661 80.49617004 91.5030365 C77.26571758 91.50094383 74.0357819 91.47758988 70.80541992 91.45410156 C68.56768579 91.44850732 66.32994798 91.44423641 64.09220886 91.4412384 C58.19843426 91.42977616 52.30488094 91.40029695 46.41119385 91.36712646 C40.39875279 91.33645539 34.38627602 91.3227394 28.3737793 91.30761719 C16.57355179 91.27542871 4.77348862 91.22421557 -7.02661133 91.16113281 C-7.02661133 95.12113281 -7.02661133 99.08113281 -7.02661133 103.16113281 C-7.35661133 103.16113281 -7.68661133 103.16113281 -8.02661133 103.16113281 C-8.04973212 89.87925872 -8.06752507 76.59738938 -8.0784235 63.31549931 C-8.08365291 57.14888361 -8.09075159 50.98228163 -8.10205078 44.81567383 C-8.11287762 38.86997276 -8.11888773 32.92428492 -8.12148857 26.97857475 C-8.12334319 24.70466338 -8.1269645 22.43075277 -8.13234138 20.156847 C-8.13954911 16.98386161 -8.14060238 13.81093165 -8.14013672 10.63793945 C-8.14373199 9.6877594 -8.14732727 8.73757935 -8.15103149 7.75860596 C-8.13840843 -0.13496876 -7.36527782 0.01174888 0 0 Z " fill="#64C7EF" transform="translate(342.026611328125,148.8388671875)"/>
<path d="M0 0 C35.31 0 70.62 0 107 0 C107 11.55 107 23.1 107 35 C71.69 35 36.38 35 0 35 C0 23.45 0 11.9 0 0 Z " fill="#BE2915" transform="translate(227,217)"/>
<path d="M0 0 C35.31 0 70.62 0 107 0 C107 11.55 107 23.1 107 35 C71.69 35 36.38 35 0 35 C0 23.45 0 11.9 0 0 Z " fill="#BE2915" transform="translate(0,217)"/>
<path d="M0 0 C7.04694638 5.40518468 12.13411114 11.93982093 14.1796875 20.671875 C15.35151142 29.88778186 13.78205354 37.47583551 8.484375 45.1171875 C2.92876369 51.9323706 -2.81250203 56.10188031 -11.6640625 57.109375 C-20.70089385 57.5455693 -28.77789103 56.64256229 -36.0625 50.90625 C-41.98560711 45.39537379 -46.39704046 38.66043832 -47.09375 30.44921875 C-47.38100682 19.58870145 -45.54104327 12.4865013 -38.1328125 4.296875 C-28.17638064 -4.82831487 -11.81507178 -7.08108679 0 0 Z " fill="#EEEEEE" transform="translate(413.8203125,335.328125)"/>
<path d="M0 0 C6.45710659 5.03454266 10.6651308 11.42152976 13.01953125 19.26953125 C14.04119888 29.48620753 11.99783249 37.23181047 6.08203125 45.69140625 C3.01732029 49.20525589 -0.6799982 51.52336122 -4.73046875 53.76953125 C-5.3234375 54.14464844 -5.91640625 54.51976562 -6.52734375 54.90625 C-13.37828495 57.59075001 -23.5818956 56.63244675 -30.35546875 54.08203125 C-38.52228189 50.15594185 -43.53102699 44.3450392 -46.84765625 35.9375 C-49.15324758 27.66389573 -48.64353065 18.72651822 -44.984375 10.94921875 C-40.75646134 3.59976136 -35.03426232 -1.110972 -26.9296875 -3.8359375 C-17.38081682 -5.54896759 -8.31013062 -5.31997867 0 0 Z " fill="#EEEEEE" transform="translate(144.73046875,336.23046875)"/>
<path d="M0 0 C0.90060654 0.00507065 1.80121307 0.0101413 2.72911072 0.0153656 C3.7569014 0.00928787 4.78469208 0.00321014 5.84362793 -0.00305176 C7.49225075 0.02624672 7.49225075 0.02624672 9.17417908 0.05613708 C10.31181198 0.05846848 11.44944489 0.06079987 12.62155151 0.0632019 C15.02304091 0.07293312 17.42450755 0.09470551 19.82579041 0.12767029 C23.50411407 0.17709769 27.1811001 0.18915294 30.85972595 0.19480896 C33.19372457 0.20889446 35.52771158 0.22509868 37.86167908 0.24363708 C39.51333824 0.25168114 39.51333824 0.25168114 41.19836426 0.2598877 C42.22300278 0.27587509 43.2476413 0.29186249 44.30332947 0.30833435 C45.65304588 0.32429405 45.65304588 0.32429405 47.0300293 0.34057617 C49.62408766 0.63426814 51.2552668 1.21950057 53.45152283 2.61473083 C56.88339954 9.47848426 54.45152283 17.94082121 54.45152283 25.61473083 C33.99152283 25.61473083 13.53152283 25.61473083 -7.54847717 25.61473083 C-7.54847717 1.82080567 -7.54847717 1.82080567 0 0 Z " fill="#BD2713" transform="translate(143.54847717285156,88.38526916503906)"/>
</svg>
